<?xml version="1.0" encoding="UTF-8" standalone="no"?>
<?xml-stylesheet type="text/css" href="../main_site.css" ?><?xml-stylesheet type="text/css" href="../shared/style.css" ?><svg
   version="1.2"
   class="icon dark"
   viewBox="0 0 500 500"
   width="500"
   height="500"
   id="svg1"
   sodipodi:docname="icon_minio.svg"
   inkscape:version="1.4 (e7c3feb100, 2024-10-09)"
   xmlns:inkscape="http://www.inkscape.org/namespaces/inkscape"
   xmlns:sodipodi="http://sodipodi.sourceforge.net/DTD/sodipodi-0.dtd"
   xmlns="http://www.w3.org/2000/svg"
   xmlns:svg="http://www.w3.org/2000/svg"
   xmlns:rdf="http://www.w3.org/1999/02/22-rdf-syntax-ns#"
   xmlns:cc="http://creativecommons.org/ns#"
   xmlns:dc="http://purl.org/dc/elements/1.1/">
  <defs
     id="defs1" />
  <sodipodi:namedview
     id="namedview1"
     pagecolor="#ffffff"
     bordercolor="#000000"
     borderopacity="0.25"
     inkscape:showpageshadow="2"
     inkscape:pageopacity="0.0"
     inkscape:pagecheckerboard="0"
     inkscape:deskcolor="#d1d1d1"
     inkscape:zoom="0.29931641"
     inkscape:cx="1024"
     inkscape:cy="1024"
     inkscape:window-width="1440"
     inkscape:window-height="875"
     inkscape:window-x="0"
     inkscape:window-y="0"
     inkscape:window-maximized="1"
     inkscape:current-layer="svg1" />
  <title
     id="title1">New Project</title>
  <path
     id="MinIO"
     fill-rule="evenodd"
     class="s0"
     d="m 270.20123,0 c 1.9529,0 5.24494,0.27899 7.36523,0.64167 2.1203,0.36268 5.07756,1.06015 6.61199,1.56233 1.50653,0.50217 4.32429,1.70181 6.2493,2.67827 1.92501,0.97645 4.79857,2.67827 6.3888,3.79422 1.56232,1.08805 4.40799,3.51523 6.30509,5.32864 1.92501,1.84132 5.10546,5.52394 7.11416,8.17431 1.98081,2.65038 6.58409,9.56925 10.18301,15.37217 3.62683,5.80293 11.21526,18.16204 16.90659,27.48019 5.66343,9.31816 15.84645,26.02947 22.57002,37.16104 6.75147,11.10367 12.5823,21.06349 12.94498,22.09574 0.58587,1.67392 0.61377,1.92501 0.0279,2.2598 -0.44638,0.27898 -1.06015,0.0837 -1.89711,-0.55798 -0.69747,-0.53007 -4.82647,-4.71487 -9.23446,-9.31815 C 357.32874,112.06897 343.32361,97.42216 330.62972,84.14239 317.90793,70.86263 303.26113,55.43466 298.04409,49.88283 292.82704,44.30309 286.49404,37.7469 284.01106,35.29182 c -3.29205,-3.20835 -5.32865,-4.82647 -7.19786,-5.71923 -2.23188,-1.03225 -3.20834,-1.22754 -6.1656,-1.22754 -2.95726,0 -3.87791,0.19529 -5.83082,1.19964 -1.25544,0.66957 -3.15255,2.06451 -4.1569,3.09676 -1.03225,1.03225 -2.37139,2.84566 -2.98516,4.0453 -0.92065,1.84132 -1.08805,2.81777 -1.08805,5.94242 0,3.43154 0.1116,3.93371 1.53443,6.47249 1.17174,2.0645 7.03047,8.4533 24.18814,26.33635 12.44281,12.97288 28.14975,29.3494 34.87333,36.37987 6.75148,7.03046 13.47505,14.25622 14.92578,16.06963 1.45073,1.81342 3.82212,5.07756 5.27285,7.25366 1.42283,2.17609 3.85001,6.52829 5.38444,9.68084 1.53443,3.15255 3.48734,7.83952 4.35219,10.4341 0.86486,2.59458 2.03661,7.14206 2.65038,10.12722 0.58587,2.95726 1.31124,7.83952 1.59022,10.88048 0.25109,3.01306 0.36268,7.75583 0.19529,10.5457 -0.16739,2.76197 -0.55797,6.91887 -0.89275,9.23446 -0.33479,2.28769 -1.08805,6.13771 -1.70182,8.56489 -0.61377,2.42719 -1.72972,6.16561 -2.48299,8.3417 -0.78116,2.1761 -2.51088,6.24931 -3.87791,9.01127 -1.36704,2.78987 -3.79422,7.03047 -5.41234,9.45765 -1.61813,2.42719 -4.49169,6.27721 -6.4167,8.5649 -1.92501,2.31559 -4.93805,5.52393 -6.75147,7.14206 -1.78551,1.61812 -4.82647,4.1569 -6.77937,5.63553 -1.92501,1.47863 -5.24495,3.76632 -7.36525,5.07756 -2.0924,1.31123 -8.48119,4.79857 -24.52293,13.14027 L 285.40599,500 255.9729,470.12052 255.945,378.36179 c 0,-50.4687 -0.16739,-91.75873 -0.36268,-91.75873 -0.16739,0 -12.88918,6.36089 -28.23345,14.11673 -15.34426,7.75583 -44.19147,22.40263 -64.08322,32.52985 -19.86385,10.12722 -36.29616,18.30153 -36.46355,18.16203 -0.19529,-0.11159 -0.0837,-1.45073 0.25109,-2.95726 0.30688,-1.50652 1.22754,-5.49603 2.0366,-8.89967 0.80905,-3.37574 2.45508,-9.40186 3.68262,-13.39137 1.19964,-3.98951 3.20834,-10.12721 4.49168,-13.64245 1.25544,-3.48733 3.54313,-9.34605 5.04966,-12.97288 1.50653,-3.62683 4.1569,-9.65294 5.91452,-13.39136 1.72972,-3.76632 4.85437,-9.98773 6.91887,-13.86564 2.06449,-3.85002 5.55183,-9.98773 7.72792,-13.61455 2.1482,-3.62683 6.10981,-9.84823 8.78809,-13.83774 2.67827,-3.98951 7.03046,-10.12722 9.68083,-13.64245 2.65037,-3.48734 6.2214,-8.06272 7.92322,-10.09932 1.72972,-2.06451 5.44024,-6.3051 8.258,-9.45765 2.81777,-3.15255 8.537,-9.09497 12.74969,-13.19608 4.1848,-4.129 9.31815,-8.98337 11.35476,-10.79678 2.0645,-1.81342 5.52393,-4.79857 7.70003,-6.61199 2.1761,-1.81341 6.13771,-4.99386 8.78808,-7.05836 2.65038,-2.0366 7.50475,-5.60763 10.76888,-7.89533 3.26414,-2.31559 8.89968,-6.05401 12.5265,-8.3696 3.62683,-2.31559 8.67649,-5.38444 11.21527,-6.83517 2.53877,-1.45073 6.30509,-3.54313 8.34169,-4.65908 2.0645,-1.11595 3.90582,-2.0366 4.07321,-2.0366 0.19529,0 0.33478,21.14719 0.33478,47.00926 0,37.18893 0.1116,47.09296 0.55798,47.31615 0.27898,0.16739 2.42718,-0.66957 4.71487,-1.86921 2.28769,-1.17175 5.74713,-3.26415 7.70004,-4.65908 1.925,-1.36704 5.30073,-4.2685 7.47683,-6.4446 2.1761,-2.14819 5.07756,-5.46814 6.44459,-7.36524 1.36704,-1.89711 3.51524,-5.44025 4.74278,-7.83953 1.22754,-2.42719 2.81776,-6.19351 3.51523,-8.3696 0.69747,-2.1761 1.61812,-5.63553 2.0645,-7.67214 0.58587,-2.76197 0.78116,-5.66343 0.78116,-10.99207 0,-5.30075 -0.19529,-8.25801 -0.78116,-10.99208 -0.44638,-2.0645 -1.39493,-5.52394 -2.1203,-7.70004 -0.72536,-2.17609 -2.37138,-6.02611 -3.68262,-8.56489 -1.31124,-2.53878 -3.51524,-6.13771 -4.91017,-8.00692 -1.39493,-1.84131 -5.21705,-6.1935 -8.4533,-9.65294 -3.23623,-3.45943 -15.31636,-16.09753 -26.83851,-28.06606 -11.52214,-11.96853 -23.93705,-24.91351 -27.59178,-28.79143 -3.65471,-3.87792 -7.95111,-8.62069 -9.56923,-10.5457 -1.59022,-1.92501 -3.90581,-5.10546 -5.10546,-7.03046 -1.17174,-1.95291 -2.73407,-4.99387 -3.43153,-6.80728 -0.69747,-1.81341 -1.61813,-4.99386 -2.03661,-7.05836 -0.55797,-2.84567 -0.69746,-5.04966 -0.50217,-9.42975 0.16739,-4.46379 0.47427,-6.61199 1.39493,-9.68084 0.64167,-2.1761 2.0645,-5.63554 3.12465,-7.70004 1.06015,-2.0366 3.26415,-5.41234 4.91017,-7.44894 1.84131,-2.31559 4.40799,-4.79857 6.75148,-6.58409 2.0924,-1.59022 5.46813,-3.71052 7.47683,-4.68698 2.0366,-1.00435 4.77067,-2.17609 6.10981,-2.59457 1.33914,-0.44638 3.79422,-1.03225 5.49604,-1.33914 C 265.31896,0.30689 268.27622,0.0279 270.20123,0 Z m -20.70082,200.70305 c -2.87355,2.34348 -6.91886,5.74712 -8.95546,7.58844 -2.0645,1.84131 -6.4725,6.02611 -9.82034,9.29025 -3.37574,3.26415 -8.3417,8.3975 -11.07577,11.41056 -2.73407,3.04096 -6.91887,7.86743 -9.29026,10.76889 -2.39927,2.90146 -6.0261,7.56054 -8.1185,10.3504 -2.0645,2.76197 -5.74713,8.00692 -8.14641,11.63375 -2.42719,3.62683 -6.05401,9.37395 -8.06272,12.74969 -2.0087,3.40364 -5.41233,9.56925 -7.56053,13.75405 -2.1203,4.1569 -3.82212,7.64424 -3.76632,7.72793 0.0558,0.0558 12.77758,-6.3609 28.26135,-14.31202 15.45585,-7.95112 33.14361,-17.07398 39.25342,-20.25443 6.13769,-3.20835 11.66163,-6.3609 12.3033,-7.05837 l 1.17175,-1.22754 c 0,-48.68318 -0.1116,-56.41111 -0.47428,-56.52271 -0.27899,-0.0837 -2.84567,1.75762 -5.71923,4.10111 z"
     style="stroke-width:0.278987" />
  <metadata
     id="metadata1">
    <rdf:RDF>
      <cc:Work
         rdf:about="">
        <dc:title>New Project</dc:title>
      </cc:Work>
    </rdf:RDF>
  </metadata>
</svg>
