<?xml version="1.0" encoding="UTF-8" standalone="no"?>
<?xml-stylesheet type="text/css" href="../main_site.css" ?><?xml-stylesheet type="text/css" href="../shared/style.css" ?><svg
   version="1.2"
   class="icon dark"
   viewBox="0 0 500 500"
   width="500"
   height="500"
   id="svg1"
   sodipodi:docname="icon_wireguard.svg"
   inkscape:version="1.4 (e7c3feb100, 2024-10-09)"
   xmlns:inkscape="http://www.inkscape.org/namespaces/inkscape"
   xmlns:sodipodi="http://sodipodi.sourceforge.net/DTD/sodipodi-0.dtd"
   xmlns="http://www.w3.org/2000/svg"
   xmlns:svg="http://www.w3.org/2000/svg"
   xmlns:rdf="http://www.w3.org/1999/02/22-rdf-syntax-ns#"
   xmlns:cc="http://creativecommons.org/ns#"
   xmlns:dc="http://purl.org/dc/elements/1.1/">
  <defs
     id="defs1" />
  <sodipodi:namedview
     id="namedview1"
     pagecolor="#ffffff"
     bordercolor="#000000"
     borderopacity="0.25"
     inkscape:showpageshadow="2"
     inkscape:pageopacity="0.0"
     inkscape:pagecheckerboard="0"
     inkscape:deskcolor="#d1d1d1"
     inkscape:zoom="0.49223518"
     inkscape:cx="326.06365"
     inkscape:cy="171.66591"
     inkscape:window-width="1440"
     inkscape:window-height="875"
     inkscape:window-x="0"
     inkscape:window-y="0"
     inkscape:window-maximized="1"
     inkscape:current-layer="svg1" />
  <title
     id="title1">New Project</title>
  <path
     id="WireGaurd"
     fill-rule="evenodd"
     class="s0"
     d="m 263.13871,0.0030079 c 4.27251,-0.0279 8.68466,0.13963 11.64471,0.4468 2.59702,0.25133 6.03179,0.6702 7.62351,0.92153 1.59173,0.25132 4.21667,0.75397 5.8084,1.08907 1.59172,0.3351 4.55177,1.06115 6.5903,1.64758 2.01059,0.5585 5.16611,1.50795 7.00916,2.15022 1.87098,0.61435 5.08235,1.81513 7.20465,2.65288 2.09437,0.83775 6.28311,2.7366501 9.32694,4.1887501 3.0159,1.4521 7.34427,3.65817 9.63411,4.91479 2.48532,1.3404 4.77517,2.87628 5.75255,3.7978 0.92152,0.83775 2.6808,2.7925 3.96535,4.30045 1.25662,1.50795 3.21137,3.6861 4.30043,4.83103 2.0106,2.06645 2.03853,2.06645 6.1435,3.40684 2.26193,0.75398 5.585,1.70343 7.34428,2.15023 1.75926,0.41887 4.74723,0.97737 6.64613,1.2287 1.8989,0.25132 4.5797,0.4468 5.97595,0.4468 1.36833,0 3.15553,-0.0838 5.41744,-0.4468 v -3.51855 l 0.83775,0.19547 c 0.47473,0.1117 1.87098,0.61435 3.1276,1.14493 1.25662,0.50265 3.26722,1.5638 4.44007,2.3457 1.17285,0.7819 3.09968,2.234 4.2446,3.21137 1.17285,1.0053 2.98797,2.9042 4.04912,4.27253 1.08907,1.3404 2.51325,3.4627 3.15552,4.71932 0.6702,1.25663 1.42418,3.1276 1.6755,4.1329 0.27925,1.0053 0.47472,2.15022 0.47472,3.21137 h -50.90723 l -1.50795,0.72605 c -0.86567,0.41888 -1.75926,0.97738 -2.01059,1.25663 -0.39095,0.4468 -0.36302,0.58642 0.47473,1.42417 0.50264,0.53058 1.45209,1.3404 3.35099,2.70873 l 11.17,-0.19548 c 7.53973,-0.1117 12.45453,-0.0838 15.13533,0.16755 2.17814,0.19548 5.08234,0.50265 6.42274,0.69813 1.3404,0.16755 2.59702,0.41887 2.7925,0.50265 0.25132,0.13962 -0.19548,1.117 -1.36833,3.0159 -0.94945,1.53587 -2.56909,3.85364 -3.57439,5.13819 -1.0053,1.28455 -2.59703,2.9042 -3.49062,3.60233 -0.92152,0.72605 -2.17815,1.4521 -2.76457,1.64757 -0.58643,0.2234 -1.5638,0.39095 -2.15023,0.39095 -0.58642,0 -1.59172,-0.16755 -2.26192,-0.36302 -0.64228,-0.2234 -1.84305,-0.97738 -2.6808,-1.6755 -1.31248,-1.17285 -1.70343,-1.3404 -3.54647,-1.53588 -1.117,-0.13962 -8.88014,-0.2234 -17.20178,-0.19547 -8.32165,0 -17.67651,0.19547 -20.77618,0.39095 -3.1276,0.19547 -7.9307,0.5585 -10.69527,0.80982 -2.7925,0.25133 -5.94802,0.61435 -7.03709,0.80983 -1.08908,0.16755 -2.37363,0.50265 -2.82043,0.75397 -0.47472,0.2234 -1.20077,1.0053 -1.61965,1.70343 -0.39095,0.72605 -0.83775,1.92682 -0.94945,2.6808 -0.13962,1.06115 -0.0279,1.75927 0.50265,3.04382 0.39095,0.94945 1.3404,2.76458 2.09438,4.07705 0.7819,1.3404 2.31777,3.51855 3.43477,4.9148 1.08907,1.36832 3.29515,3.71402 4.88687,5.22197 1.59173,1.480032 4.71932,4.104982 7.00917,5.808402 2.26192,1.6755 7.00917,4.9148 10.52772,7.20465 3.54646,2.26192 7.73521,4.99857 9.32694,6.08765 1.61965,1.06115 3.88157,2.6808 5.05442,3.54647 1.17285,0.8936 3.37891,2.6808 4.88686,4.0212 1.50795,1.31247 4.74725,4.04912 7.17673,6.08765 2.4574,2.03852 6.45066,5.6967 8.88013,8.12617 2.42948,2.42948 5.50123,5.72462 6.8137,7.31635 1.31248,1.5638 3.26723,4.10497 4.32838,5.64085 1.08906,1.50795 2.84834,4.18875 3.88156,5.94802 1.06115,1.75928 2.6808,4.85895 3.5744,6.86955 0.92152,2.03852 2.17815,5.2499 2.82042,7.20465 0.61435,1.92682 1.48003,5.08235 1.92683,7.00917 0.41887,1.95475 1.03322,5.30575 1.31247,7.51182 0.39095,2.96005 0.53058,6.19935 0.5585,12.67795 0,5.11027 -0.16755,10.30432 -0.39095,12.53832 -0.2234,2.09438 -0.6702,5.75255 -1.0053,8.09825 -0.36302,2.70872 -1.20077,6.56237 -2.26192,10.3881 -0.94945,3.37892 -2.17815,7.65144 -2.76458,9.49449 -0.58642,1.84305 -1.61965,4.94273 -2.31777,6.86955 -0.69813,1.92683 -1.87097,5.11027 -2.65287,7.0371 -0.75398,1.92682 -2.26193,5.44537 -3.32307,7.79107 -1.08907,2.3457 -2.93212,6.05973 -4.1329,8.2658 -1.20077,2.17815 -3.15552,5.4733 -4.3563,7.31635 -1.20077,1.87097 -3.0159,4.468 -4.0212,5.83632 -0.97737,1.3404 -2.98796,3.7978 -4.44006,5.50122 -1.4521,1.6755 -4.1329,4.49593 -5.97595,6.2552 -1.81512,1.75928 -4.6914,4.32838 -6.3669,5.66878 -1.70341,1.3404 -4.24458,3.26722 -5.66876,4.30045 -1.42417,1.00529 -4.04912,2.73664 -5.8084,3.85364 -1.75927,1.08908 -4.80309,2.87628 -6.72991,3.99328 -1.92682,1.08907 -5.83632,3.15552 -8.7126,4.5797 -2.84835,1.42417 -7.59559,3.71402 -10.55564,5.05442 -2.93212,1.3404 -9.52241,4.21667 -14.66061,6.42275 -5.13819,2.17815 -14.07418,6.00387 -19.88258,8.46127 -5.80839,2.48533 -11.78434,5.08235 -13.29229,5.78047 -1.50795,0.72605 -3.99327,2.09438 -5.50122,3.07175 -1.50795,0.97738 -3.43476,2.3457 -4.27251,3.0159 -0.83775,0.69813 -2.54118,2.20608 -3.76988,3.40685 -1.25662,1.20078 -3.04382,3.1276 -4.0212,4.30045 -0.97737,1.17285 -2.51325,3.32307 -3.43477,4.74725 -0.92153,1.42417 -2.09437,3.351 -2.59702,4.27252 -0.50265,0.92153 -1.48002,3.07175 -2.15022,4.74725 -0.69812,1.6755 -1.61965,4.30045 -2.03852,5.8084 -0.41888,1.50795 -0.97738,3.99327 -1.25663,5.50122 -0.27925,1.50795 -0.5585,4.60763 -0.6702,6.86955 -0.1117,2.42948 -0.0279,5.52915 0.19548,7.51183 0.19547,1.84304 0.6702,4.66347 1.08907,6.25519 0.39095,1.59173 1.08908,3.93743 1.53588,5.19405 0.4468,1.25663 1.50794,3.65818 2.34569,5.3616 0.83775,1.6755 2.37362,4.30045 3.40684,5.8084 1.14493,1.70342 3.4627,4.3563 6.1435,7.0371 3.18345,3.21137 5.16613,4.88687 7.65145,6.53445 1.84304,1.22869 4.74724,2.93212 6.42274,3.76987 1.6755,0.83775 4.30045,2.0106 5.8084,2.59702 1.50795,0.58643 4.32836,1.4521 6.28311,1.95475 1.92682,0.50265 5.16612,1.117 7.17672,1.36833 2.73665,0.36302 5.11027,0.4468 9.32694,0.3351 4.04912,-0.13963 6.50652,-0.36303 8.7126,-0.83775 1.6755,-0.3351 4.49591,-1.117 6.25519,-1.70343 1.7872,-0.58642 4.60762,-1.7872 6.28312,-2.62495 1.6755,-0.83775 4.30045,-2.37362 5.80839,-3.40685 1.53587,-1.06115 4.30045,-3.40684 6.28312,-5.38952 2.42948,-2.42947 4.21668,-4.5797 5.75255,-6.89747 1.2287,-1.84305 2.98796,-4.85895 3.88156,-6.72993 0.8936,-1.84304 2.17815,-4.94272 2.82043,-6.86954 0.6702,-1.92683 1.42417,-4.88688 1.73135,-6.56238 0.27925,-1.70342 0.61435,-4.9148 0.7819,-7.20464 0.13962,-2.26193 0.1117,-5.75255 -0.0279,-7.79108 -0.13962,-2.0106 -0.53057,-5.11027 -0.8936,-6.86955 -0.3351,-1.75927 -0.97737,-4.38422 -1.42417,-5.80839 -0.41888,-1.42418 -1.50795,-4.10498 -2.37363,-5.97595 -0.86567,-1.84305 -2.26191,-4.38423 -3.07174,-5.64085 -0.80982,-1.25663 -2.31777,-3.32307 -3.37892,-4.5797 -1.03322,-1.28455 -2.7925,-3.1276 -3.85365,-4.1329 -1.08907,-1.0053 -2.7925,-2.48532 -3.7978,-3.26722 -1.0053,-0.7819 -2.98797,-2.1223 -4.41214,-3.0159 -1.4521,-0.8936 -4.27252,-2.42948 -6.28312,-3.37893 -2.0106,-0.97737 -5.44537,-2.37362 -7.65145,-3.12759 -2.17814,-0.72605 -4.99856,-1.59173 -6.25519,-1.8989 -1.25662,-0.27925 -2.40155,-0.61435 -2.51325,-0.72605 -0.1117,-0.1117 0.83775,-0.6702 2.15023,-1.2287 1.28455,-0.58643 5.50122,-2.54118 9.38279,-4.38423 3.85365,-1.81512 10.05299,-4.9148 13.76701,-6.86955 3.6861,-1.92682 9.0477,-4.85894 11.92397,-6.50652 2.84834,-1.61965 7.17671,-4.18875 9.63411,-5.66877 2.42948,-1.48003 5.3616,-3.32308 6.53445,-4.10498 1.14492,-0.75397 2.45739,-1.61965 2.90419,-1.92682 0.4468,-0.27925 1.28455,-0.53058 1.87097,-0.53058 0.58643,0 1.48003,0.25133 1.98268,0.5585 0.50265,0.30718 1.7872,1.36833 2.87627,2.37363 1.08908,1.0053 3.49063,3.4627 5.33368,5.4733 1.87096,2.03852 4.52383,5.05442 5.89216,6.72992 1.3404,1.6755 3.49062,4.49592 4.74725,6.2552 1.25662,1.7872 3.2393,4.74725 4.38422,6.5903 1.17285,1.84305 3.46269,5.97595 5.05442,9.15939 1.61964,3.21138 3.63024,7.5956 4.49592,9.80168 0.86567,2.17815 1.98267,5.27782 2.48532,6.86954 0.53058,1.59173 1.36833,4.49593 1.87098,6.42275 0.50265,1.92683 1.25662,5.3616 1.6755,7.65145 0.41887,2.26193 0.92152,5.3616 1.08907,6.86955 0.16755,1.50795 0.39095,5.64085 0.50265,9.1594 0.11169,4.74725 0.0279,7.79107 -0.3351,11.56094 -0.25132,2.82043 -0.83775,6.9254 -1.28455,9.1594 -0.41887,2.234 -1.36832,6.11557 -2.1223,8.62882 -0.72605,2.54118 -2.06645,6.45068 -2.98797,8.74053 -0.8936,2.26192 -2.42948,5.69669 -3.40685,7.62352 -0.97737,1.92682 -2.59702,4.88687 -3.60232,6.5903 -1.0053,1.6755 -2.73664,4.3563 -3.85364,5.94802 -1.117,1.59173 -3.37893,4.63555 -5.08235,6.72992 -1.6755,2.09438 -5.2499,6.0318 -7.95861,8.7126 -2.6808,2.70873 -6.2552,6.05972 -7.9307,7.45597 -1.70343,1.39625 -4.85895,3.88158 -7.0371,5.52915 -2.20606,1.64758 -5.83631,4.21668 -8.09824,5.6967 -2.28985,1.48003 -6.1435,3.71403 -8.57296,4.94272 -2.42948,1.2287 -6.1435,2.9042 -8.2658,3.71403 -2.09437,0.80982 -5.33367,1.98267 -7.17671,2.5691 -1.84305,0.61435 -4.74725,1.4521 -6.42275,1.87097 -1.6755,0.41888 -4.9148,1.08908 -7.17672,1.50795 -2.26192,0.41888 -5.64084,0.92153 -7.48389,1.14493 C 286.95873,499.83245 282.43489,500 277.5201,500 c -5.94803,-0.0279 -9.24318,-0.16755 -12.37076,-0.5585 -2.37363,-0.30717 -6.00388,-0.8936 -8.09825,-1.31247 -2.1223,-0.41888 -5.41745,-1.17285 -7.34426,-1.6755 -1.95475,-0.53058 -5.585,-1.6755 -8.09825,-2.5691 -2.54118,-0.8936 -6.2552,-2.37363 -8.26579,-3.26723 -2.0106,-0.92152 -5.38952,-2.59702 -7.4839,-3.74194 -2.1223,-1.14493 -5.75255,-3.351 -8.09824,-4.9148 -2.37362,-1.5638 -5.72462,-3.99328 -7.51182,-5.41745 -1.75927,-1.39625 -4.5797,-3.85365 -6.25519,-5.41745 -1.6755,-1.5638 -4.30045,-4.16082 -5.78047,-5.78047 -1.50795,-1.61965 -3.71402,-4.18875 -4.9148,-5.6967 -1.20077,-1.50795 -3.0159,-3.9095 -3.99327,-5.3616 -1.00529,-1.42418 -2.40154,-3.49062 -3.09967,-4.5797 -0.6702,-1.08907 -1.7872,-2.96005 -2.48532,-4.1329 -0.6702,-1.17285 -1.92683,-3.5744 -2.82043,-5.33367 -0.86567,-1.75928 -2.20607,-4.71933 -2.98797,-6.5903 -0.75398,-1.84305 -1.75927,-4.52385 -2.26192,-5.94802 -0.47473,-1.42418 -1.28455,-3.96535 -1.75928,-5.66878 -0.47472,-1.6755 -1.22869,-4.63555 -1.67549,-6.56237 -0.41887,-1.92682 -1.06115,-5.38952 -1.39625,-7.65145 -0.3351,-2.26192 -0.75397,-6.11557 -0.94945,-8.54505 -0.19547,-2.62494 -0.27925,-6.89747 -0.16755,-10.41602 0.1117,-3.26722 0.39095,-7.45597 0.64228,-9.32695 0.2234,-1.84304 0.64227,-4.66347 0.92152,-6.25519 0.27925,-1.59173 0.83775,-4.3563 1.25663,-6.11558 0.41887,-1.75927 1.25661,-4.8031 1.84304,-6.72992 0.61435,-1.92682 1.61965,-4.88687 2.26192,-6.56237 0.64227,-1.6755 1.92682,-4.71933 2.84835,-6.72993 0.92152,-2.0106 2.37362,-4.91479 3.18345,-6.42274 0.83775,-1.50795 2.234,-3.9095 3.1276,-5.3616 0.86567,-1.42418 2.5691,-3.96535 3.76986,-5.64085 1.20078,-1.6755 3.51855,-4.63555 5.1382,-6.5903 1.61965,-1.92682 4.94272,-5.44537 7.34427,-7.79107 2.42947,-2.3457 5.69669,-5.33368 7.31634,-6.5903 1.59173,-1.28455 4.60762,-3.51855 6.702,-4.94272 2.1223,-1.42418 5.61291,-3.60233 7.81899,-4.83103 2.17815,-1.25662 5.6967,-3.04382 7.79107,-3.99327 2.09437,-0.94945 5.61291,-2.37363 7.79106,-3.18345 2.17815,-0.7819 5.55708,-1.8989 7.4839,-2.42948 1.92683,-0.5585 6.28311,-1.59172 9.63411,-2.31777 3.37893,-0.69812 7.7073,-1.75927 9.63412,-2.3457 1.92682,-0.58642 4.83102,-1.53587 6.42274,-2.1223 1.59173,-0.61435 4.55178,-1.84305 6.56238,-2.7925 2.03851,-0.92152 5.33366,-2.59702 7.34426,-3.71402 2.0106,-1.14493 5.38952,-3.21138 7.4839,-4.60763 2.12229,-1.42417 5.55706,-3.93742 7.65144,-5.64084 2.09437,-1.6755 5.75254,-4.97065 8.09824,-7.34428 2.37362,-2.3457 5.44537,-5.72462 6.86954,-7.48389 1.42418,-1.7872 3.71403,-4.94273 5.08235,-7.0371 1.36832,-2.1223 3.32307,-5.4733 4.3563,-7.51183 1.00529,-2.0106 2.26191,-4.69139 2.73664,-5.94802 0.50265,-1.25662 1.3404,-3.65817 1.84305,-5.3616 0.53057,-1.6755 1.14492,-4.07705 1.39625,-5.33367 0.25132,-1.25663 0.64227,-3.6861 0.83775,-5.3616 0.2234,-1.8989 0.27925,-4.97065 0.16755,-8.09825 -0.1117,-3.21137 -0.39095,-6.1435 -0.80983,-8.09825 -0.3351,-1.67549 -1.117,-4.57969 -1.70342,-6.42274 -0.61435,-1.84305 -1.8989,-5.0265 -2.87628,-7.0371 -0.97737,-2.0106 -2.73664,-5.11028 -3.90949,-6.86955 -1.17285,-1.75927 -3.18344,-4.52385 -4.46799,-6.11557 -1.31248,-1.59173 -3.9095,-4.55178 -5.78048,-6.5903 -1.8989,-2.0106 -5.41744,-5.52915 -7.87484,-7.84692 -2.42947,-2.28985 -6.14349,-5.64085 -8.23787,-7.45598 -2.12229,-1.7872 -6.45066,-5.3616 -9.63411,-7.90277 -3.21137,-2.5691 -11.16999,-8.76845 -17.73236,-13.79495 -6.56236,-4.99857 -13.79494,-10.61149 -16.05686,-12.45454 -2.26193,-1.84305 -4.57969,-3.54648 -5.11026,-3.76988 -0.5585,-0.2234 -2.0106,-0.5585 -3.21138,-0.72605 -1.70342,-0.25132 -3.76987,-0.2234 -8.79637,0.16755 -3.90949,0.30718 -8.60089,0.47473 -11.53301,0.41888 -2.70873,-0.0838 -5.11028,-0.25133 -5.27783,-0.41888 -0.2234,-0.2234 0.0558,-0.58642 0.97738,-1.2287 0.72605,-0.47472 4.8031,-2.70872 9.10355,-4.91479 4.30044,-2.20608 8.51711,-4.44008 9.41071,-4.97065 0.86567,-0.530582 1.59172,-1.117002 1.59172,-1.284552 0,-0.16755 -1.39625,-0.97738 -3.1276,-1.81513 -1.73135,-0.83775 -4.44006,-1.92682 -6.03179,-2.4574 -1.59172,-0.50265 -4.30044,-1.20077 -5.97594,-1.50795 -1.6755,-0.3351 -4.07705,-0.75397 -5.33368,-0.92152 -1.28455,-0.16755 -6.22726,-0.61435 -11.03036,-0.94945 -4.77517,-0.3351 -10.27639,-0.80983 -12.20321,-1.06115 -1.95475,-0.27925 -4.07705,-0.61435 -4.74725,-0.7819 -0.6702,-0.13963 -1.25662,-0.30718 -1.31247,-0.36303 -0.0558,-0.0279 0.5585,-0.94944 1.36832,-2.03852 0.80983,-1.08907 2.5691,-2.87627 3.9095,-3.99327 1.3404,-1.117 3.351,-2.6808 4.44007,-3.43478 1.08908,-0.75397 3.29514,-2.15022 4.88687,-3.07175 1.59172,-0.8936 3.88157,-2.09437 5.05442,-2.65287 1.17285,-0.5585 3.15552,-1.42418 4.41215,-1.92683 1.28455,-0.50265 3.74195,-1.28455 5.52914,-1.70342 1.75927,-0.41887 3.2393,-0.7819 3.26722,-0.80982 0.0279,0 -0.2234,-2.48533 -0.53057,-5.52915 -0.3351,-3.0159 -0.75398,-6.2552 -0.92153,-7.17673 -0.19547,-0.92152 -0.5585,-2.37362 -0.80982,-3.21137 -0.27925,-0.83775 -0.75398,-2.03852 -1.06115,-2.6808 -0.30718,-0.61435 -1.14493,-1.7872 -1.87097,-2.5691 -0.69812,-0.7819 -2.31777,-2.09437 -3.60232,-2.93212 -1.25663,-0.80983 -5.4733,-3.09968 -9.3828,-5.05443 -3.90949,-1.95475 -7.06501,-3.6861 -7.03709,-3.82572 0.0558,-0.13963 0.97738,-0.7819 2.06645,-1.39625 1.08908,-0.61435 3.01589,-1.5638 4.27252,-2.09437 1.25662,-0.53058 3.4627,-1.25663 4.88687,-1.64758 2.37363,-0.64227 3.2393,-0.72605 9.18731,-0.69812 6.19935,0 6.95333,0.0838 13.59947,1.20077 6.59029,1.117 7.42804,1.20078 13.15267,1.20078 5.78046,-0.0279 6.25518,-0.0559 8.85221,-0.86568 1.53587,-0.4468 3.99327,-1.48002 5.50122,-2.28985 1.53588,-0.7819 3.60233,-2.03852 4.60763,-2.76457 1.06114,-0.75398 1.70341,-1.39625 1.50794,-1.53588 -0.16755,-0.13962 -3.60232,-1.36832 -7.62352,-2.76457 -4.04912,-1.36833 -9.74581,-3.4627 -12.70586,-4.63555 -2.93212,-1.17285 -7.4839,-3.15552 -10.08092,-4.41215 -2.59702,-1.25662 -6.28311,-3.18345 -8.18201,-4.2725201 -1.8989,-1.08908 -3.43478,-2.03853 -3.43478,-2.1223 0,-0.0838 0.86568,-0.0838 1.8989,0.0279 1.06115,0.0838 3.85365,0.4468 6.19935,0.7819 2.34569,0.3351 8.12616,1.3404 12.84549,2.2340001 4.71931,0.92153 10.41601,1.92683 12.67793,2.26193 2.28985,0.36302 6.19935,0.7819 8.71259,0.94945 2.54117,0.19547 5.64085,0.25132 6.89747,0.16755 1.25663,-0.1117 3.0159,-0.25133 5.50123,-0.47473 v -1.20077 c 0,-1.03323 -0.1117,-1.25663 -0.69813,-1.39625 -0.36302,-0.0838 -6.11557,-1.3962501 -12.76172,-2.9042001 -6.64614,-1.50795 -15.38666,-3.51855 -19.40785,-4.44008 -4.04912,-0.92152 -7.76315,-1.7872 -8.2658,-1.95475 -0.86567,-0.25132 -0.86567,-0.27925 0.47473,-0.30717 0.75397,-0.0279 4.99857,-0.30718 9.46657,-0.61435 4.46799,-0.30718 11.19791,-0.5585 14.96779,-0.58643 z m 60.09454,38.2851701 c -0.83775,0.39095 -1.81512,1.03322 -2.15022,1.42417 -0.3351,0.36303 -0.61435,1.06115 -0.61435,1.53588 0,0.50265 0.3351,1.2287 0.7819,1.70342 0.41887,0.4468 1.17285,1.0053 1.67549,1.2287 0.61435,0.25133 1.2287,0.30718 1.84305,0.13963 0.50265,-0.13963 1.92682,-0.75398 3.21137,-1.39625 1.25662,-0.61435 2.3457,-1.20078 2.42947,-1.25663 0.0838,-0.0838 -0.72605,-1.03322 -1.84305,-2.1223 -1.5638,-1.5638 -2.17814,-1.98267 -2.90419,-1.98267 -0.50265,0.0279 -1.59172,0.3351 -2.42947,0.72605 z M 237.00092,138.62268 c 3.54648,0.0838 7.87485,0.3351 9.63413,0.58642 1.75927,0.25133 4.85893,0.7819 6.89746,1.20078 2.0106,0.41887 5.30575,1.25662 7.31635,1.87097 2.03852,0.61435 5.24989,1.73135 7.20463,2.51325 1.92683,0.75397 5.3616,2.31777 7.62353,3.4627 2.28985,1.117 5.64084,2.96005 7.51181,4.10497 1.84305,1.14493 4.8031,3.1276 6.56237,4.41215 1.75928,1.28455 4.44008,3.351 5.97595,4.60762 1.50794,1.2287 4.85894,4.32838 7.42804,6.86955 2.59702,2.54118 6.17142,6.33898 7.95862,8.43335 1.78719,2.09438 4.60762,5.585 6.25519,7.79107 1.6755,2.26193 3.54648,5.16613 4.30045,6.72993 0.72605,1.50795 1.5638,3.65817 1.87097,4.74725 0.27925,1.08907 0.72605,3.21137 0.94945,4.71932 0.2234,1.53587 0.41888,4.71932 0.41888,7.12087 0,2.40155 -0.19548,5.89218 -0.4468,7.79107 -0.25133,1.8989 -0.80983,4.6914 -1.25663,6.19935 -0.41887,1.50795 -1.25662,4.04913 -1.84304,5.64085 -0.58643,1.61965 -2.15023,5.11028 -3.4627,7.819 -1.31248,2.6808 -3.63025,6.72992 -5.1382,9.01977 -1.50794,2.26193 -4.07704,5.64085 -5.64084,7.4839 -1.59173,1.84305 -3.9095,4.30045 -5.16612,5.4733 -1.25663,1.14492 -3.2393,2.87627 -4.41215,3.85365 -1.17285,0.94945 -3.43477,2.62495 -5.02649,3.74195 -1.61965,1.08907 -4.0212,2.65287 -5.3616,3.43477 -1.3404,0.7819 -3.49062,1.95475 -4.74725,2.59702 -1.25662,0.64228 -4.07704,1.92683 -6.25519,2.84835 -2.17815,0.92153 -5.50122,2.17815 -7.34427,2.7925 -1.84305,0.64228 -5.36159,1.6755 -7.79106,2.3457 -2.42948,0.64228 -4.468,1.14493 -4.52385,1.117 -0.0279,-0.0558 1.06115,-1.06115 2.4574,-2.26192 1.39625,-1.20078 3.0159,-2.70873 3.60232,-3.37893 0.58643,-0.64227 1.75928,-1.98267 2.59703,-2.98797 0.83774,-1.03323 2.34569,-3.07175 3.35098,-4.60762 0.97738,-1.50795 2.4574,-4.10498 3.2393,-5.8084 0.80983,-1.6755 1.87098,-4.27253 2.37363,-5.8084 0.50265,-1.50795 1.117,-3.76987 1.39625,-5.0265 0.25132,-1.25662 0.61435,-4.07705 0.7819,-6.28312 0.25132,-2.82043 0.25132,-5.0265 0.0279,-7.7073 -0.16755,-2.06645 -0.61435,-5.08235 -0.97737,-6.72992 -0.36303,-1.64758 -1.06115,-4.16083 -1.5638,-5.585 -0.50265,-1.42418 -1.36833,-3.49063 -1.8989,-4.5797 -0.5585,-1.08908 -1.8989,-3.29515 -2.96005,-4.88687 -1.08907,-1.64758 -3.21137,-4.18875 -4.85894,-5.8084 -1.59172,-1.61965 -4.1329,-3.76988 -5.64085,-4.8031 -1.53587,-1.03323 -4.1329,-2.5691 -5.8084,-3.40685 -1.6755,-0.83775 -4.24458,-1.92683 -5.66876,-2.42948 -1.42417,-0.50264 -3.82572,-1.20077 -5.33367,-1.53587 -1.53588,-0.36302 -4.21668,-0.80982 -5.97595,-1.0053 -1.98267,-0.2234 -4.88686,-0.27925 -7.65144,-0.16755 -2.42947,0.0838 -5.72462,0.4468 -7.31635,0.7819 -1.61964,0.30718 -4.07704,0.94945 -5.50121,1.39625 -1.4521,0.47472 -3.85365,1.42417 -5.3616,2.1223 -1.50795,0.69812 -3.99327,2.09437 -5.50122,3.09967 -1.50794,1.0053 -4.04912,3.04383 -5.61292,4.55178 -1.59172,1.53587 -3.54647,3.65817 -4.35629,4.74725 -0.80983,1.08907 -2.09438,3.0159 -2.84835,4.27252 -0.75398,1.28455 -1.95475,3.74195 -2.65288,5.50122 -0.69811,1.7872 -1.64756,4.74725 -2.12229,6.5903 -0.4468,1.84305 -1.70342,4.9148 -1.92682,6.67407 -0.25133,2.15023 -0.64228,5.75255 -0.5585,11.3934 0.13962,7.98655 1.2287,8.65675 2.0106,11.42132 0.4468,1.61965 1.36832,4.0212 2.0106,5.3616 0.64226,1.3404 1.98266,3.54648 2.96004,4.88688 1.0053,1.3404 2.9042,3.46269 4.24459,4.69139 1.3404,1.25663 3.65818,3.09968 5.16613,4.10498 1.53587,1.0053 4.07704,2.48532 5.66876,3.29515 1.59173,0.7819 4.27253,1.95475 5.97595,2.5691 1.6755,0.64227 4.63555,1.61965 6.56237,2.15022 1.92682,0.5585 5.08234,1.3404 7.03709,1.70343 1.92683,0.39095 3.6861,0.7819 3.9095,0.86567 0.2234,0.1117 -1.117,1.14492 -3.37892,2.54117 -2.06645,1.28455 -5.66878,3.63025 -8.01447,5.22198 -2.37362,1.5638 -5.61292,3.82572 -7.20464,4.99857 -1.59173,1.17285 -4.60763,3.5744 -6.702,5.33368 -2.09437,1.75927 -5.58499,4.97064 -7.79107,7.17672 -2.17814,2.17815 -5.75254,6.08765 -7.95861,8.68467 -2.17815,2.59703 -4.32837,4.9148 -4.74725,5.19405 -0.41887,0.25132 -1.39625,0.4468 -2.15022,0.4468 -0.75398,-0.0279 -2.20608,-0.36303 -3.21138,-0.7819 -1.0053,-0.39095 -3.12759,-1.59173 -4.74724,-2.6808 -1.59172,-1.06115 -4.52384,-3.26722 -6.53444,-4.85895 -2.0106,-1.61965 -5.0265,-4.32837 -6.72993,-6.0318 -1.70342,-1.6755 -4.13288,-4.30045 -5.38951,-5.8084 -1.28455,-1.50794 -3.09967,-3.76987 -4.0212,-5.02649 -0.94945,-1.25663 -2.76457,-3.93743 -4.04912,-5.94803 -1.28455,-2.03852 -3.29515,-5.52915 -4.44007,-7.81899 -1.14492,-2.26193 -2.84834,-6.0318 -3.76987,-8.40543 -0.94945,-2.3457 -2.26192,-6.1435 -2.93212,-8.40542 -0.69813,-2.26192 -1.59173,-5.6967 -2.0106,-7.65145 -0.39095,-1.92682 -1.03323,-5.64085 -1.39625,-8.23787 -0.36303,-2.76458 -0.72605,-7.34427 -0.80983,-11.00245 -0.1117,-3.9095 -0.0559,-7.819 0.19548,-10.41602 0.19547,-2.26192 0.64227,-5.89217 0.94945,-8.09825 0.3351,-2.17815 1.08907,-5.89217 1.64757,-8.23787 0.5585,-2.37362 1.61965,-6.00387 2.31778,-8.09825 0.69812,-2.1223 1.73135,-4.94272 2.28985,-6.28312 0.5585,-1.3404 1.5638,-3.60233 2.23399,-5.05443 0.6702,-1.42417 2.15022,-4.24459 3.26722,-6.25519 1.117,-2.0106 3.09967,-5.19405 4.3563,-7.0371 1.25662,-1.84305 3.351,-4.66348 4.63555,-6.2552 1.28455,-1.59172 4.04912,-4.6914 6.14348,-6.86955 2.09438,-2.15022 5.4733,-5.33367 7.51183,-7.00917 2.03852,-1.70343 4.8031,-3.88157 6.11556,-4.83102 1.3404,-0.94945 4.41215,-2.98798 6.84162,-4.52385 2.4574,-1.50795 6.45068,-3.76988 8.88014,-5.0265 2.42948,-1.25663 5.94803,-2.9042 7.79107,-3.6861 1.84305,-0.80983 5.08235,-2.03853 7.17672,-2.76458 2.1223,-0.69812 5.75255,-1.78719 8.12617,-2.37362 2.3457,-0.58642 5.97595,-1.36832 8.09824,-1.73135 2.09437,-0.3351 5.2499,-0.75397 7.00917,-0.92152 1.7872,-0.13963 6.11557,-0.2234 9.63411,-0.16755 z m -59.53604,195.25154 c 1.39625,-0.0279 2.51325,0.0279 2.51325,0.1117 0,0.0838 -1.0053,1.64758 -2.26193,3.43478 -1.22869,1.81512 -3.01589,4.74725 -3.93742,6.50652 -0.94944,1.75927 -2.26191,4.52385 -2.90419,6.11557 -0.6702,1.59173 -1.75927,4.60763 -2.42947,6.72993 -0.6702,2.09437 -1.64758,5.80839 -2.15023,8.23787 -0.50265,2.4574 -1.17285,6.31105 -1.42417,8.57297 -0.27925,2.26193 -0.53058,4.16083 -0.5585,4.21668 -0.0279,0.0279 -1.84305,0.41887 -4.04913,0.83775 -2.17813,0.41887 -6.08763,1.17284 -8.71258,1.67549 -2.59703,0.53058 -6.64615,1.3404 -9.01977,1.87098 -2.34569,0.50265 -6.00387,1.3404 -8.09824,1.81512 -2.09438,0.50265 -5.52915,1.39625 -7.65144,1.98268 -2.09438,0.58642 -5.94802,1.7872 -8.54505,2.62495 -2.59702,0.86567 -6.25519,2.15022 -8.09824,2.87627 -1.87097,0.72605 -3.88157,1.50795 -5.66877,2.28985 l 0.19547,-0.86567 c 0.1117,-0.4468 0.64228,-2.26193 1.20078,-4.04913 0.53057,-1.75927 1.4521,-4.44007 2.03852,-5.94802 0.58643,-1.50795 1.98268,-4.55177 3.07175,-6.72992 1.117,-2.17815 3.01589,-5.50123 4.21667,-7.34428 1.20077,-1.84305 3.2393,-4.66347 4.49592,-6.2552 1.28455,-1.59172 3.76987,-4.35629 5.55707,-6.14349 1.7872,-1.75928 4.52384,-4.27253 6.14349,-5.52915 1.59173,-1.28455 4.1329,-3.15553 5.64085,-4.16083 1.50795,-1.0053 4.27252,-2.65287 6.11556,-3.65817 1.84305,-0.97737 4.60763,-2.3457 6.11558,-2.98797 1.50795,-0.64228 3.93742,-1.5638 5.3616,-2.03853 1.42417,-0.50265 4.16081,-1.28455 6.11556,-1.75927 1.92682,-0.50265 4.41215,-1.06115 5.50122,-1.25663 1.08908,-0.19547 3.49063,-0.53057 5.33368,-0.75397 1.87096,-0.2234 4.49591,-0.39095 5.89216,-0.41888 z"
     style="stroke-width:0.27925" />
  <metadata
     id="metadata1">
    <rdf:RDF>
      <cc:Work
         rdf:about="">
        <dc:title>New Project</dc:title>
      </cc:Work>
    </rdf:RDF>
  </metadata>
</svg>
