<?xml version="1.0" encoding="UTF-8" standalone="no"?>
<!-- Created with Inkscape (http://www.inkscape.org/) -->

<svg
   version="1.1"
   id="svg1"
   width="512"
   height="512"
   viewBox="0 0 511.99999 511.99999"
   xmlns="http://www.w3.org/2000/svg"
   xmlns:svg="http://www.w3.org/2000/svg">
  <defs
     id="defs1" />
  <path
     class="s0"
     d="m 247.5,482.38196 c -29.40557,-3.03513 -53.94273,-10.03627 -80,-22.82627 C 97.323384,425.11008 51.021969,358.41469 42.907842,280.08553 41.438899,265.9052 42.257881,236.0746 44.474709,223.01394 54.242259,165.46744 85.275037,113.63794 130.35479,79.581023 161.84734,55.788988 195.82704,41.5182 235.5,35.422153 c 15.30642,-2.351946 46.01355,-2.373954 61.95001,-0.0444 25.20797,3.68484 50.70716,11.876677 72.54999,23.307312 12.1076,6.336061 13.4466,7.385143 16.35641,12.814935 2.08019,3.881698 2.1522,5.252695 2.43479,46.356 l 0.29119,42.356 6.24486,8.69696 c 28.14497,39.19633 35.95701,91.0205 20.68024,137.19032 -13.49948,40.7985 -42.09452,73.43981 -80.50749,91.89953 -19.17263,9.21358 -37.7895,13.84412 -59,14.67495 l -13,0.50922 -5.03603,-2.48648 c -7.8948,-3.89795 -10.31837,-14.64765 -7.40264,-22.3814 1.43949,-3.81811 6.73496,-9.25163 10.65655,-10.93434 1.76984,-0.75942 5.81984,-1.38341 9,-1.38666 3.18017,-0.003 10.05899,-0.65063 15.28628,-1.43864 50.01459,-7.53969 89.18669,-45.40325 98.57343,-95.28058 C 387.10084,265.86738 386.10963,240.79252 382.5507,228 376.74186,207.12018 366.74154,189.79559 351.97297,175.02703 329.12479,152.17885 300.90167,140.65956 268,140.7534 c -19.53187,0.0557 -35.35908,3.79547 -52.37505,12.37554 -12.3085,6.2064 -19.30369,11.37019 -30.18512,22.28242 -21.22414,21.2842 -32.27134,45.68618 -33.99392,75.08864 -0.70411,12.01833 -2.45821,17.4256 -6.92505,21.34754 -9.06556,7.95967 -22.01825,5.98536 -28.02971,-4.27243 C 114.28294,263.80709 114,262.18136 114,253.26152 114,232.79906 119.49297,210.80507 129.92435,189.5 137.62331,173.77563 146.11689,161.95408 159,149.03187 c 22.28425,-22.35188 48.36287,-36.41643 80,-43.14505 15.22906,-3.23893 42.74379,-3.27649 58.72776,-0.0802 14.63469,2.92652 29.25171,8.04493 42.19263,14.7745 5.73122,2.98036 10.56872,5.41884 10.75,5.41884 C 350.85168,126 351,117.96025 351,108.13389 V 90.267774 l -7.25,-3.254291 C 332.99914,82.18777 314.84348,76.440743 302.44527,73.938805 287.08891,70.839918 257.09177,70.105839 240.97924,72.434631 177.6621,81.586043 124.95044,120.06576 97.519886,177.1605 c -25.334291,52.73153 -24.551893,112.81263 2.159495,165.82962 9.910349,19.67015 18.048739,30.78819 34.795529,47.53497 16.75727,16.75727 27.86465,24.88516 47.58495,34.82052 44.58139,22.46074 93.25662,26.45511 141.26256,11.59224 40.63742,-12.58154 77.31081,-40.30183 99.80278,-75.43785 10.28638,-16.06896 13.22761,-18.5 22.38252,-18.5 9.7875,0 17.43922,7.31508 18.28198,17.47764 0.41773,5.03723 0.13097,5.87594 -4.80025,14.03982 -16.63195,27.53505 -42.08376,53.95112 -68.99101,71.60482 -26.9514,17.68265 -55.96274,28.78853 -89.99844,34.45247 -9.13697,1.52049 -43.73813,2.71157 -52.5,1.80721 z m 7,-133.82413 C 234.75795,345.16209 219.93109,337.72872 205.6385,324.06135 193.36998,312.32951 184.28947,296.97417 179.87812,280.5 c -3.08032,-11.50343 -3.11534,-31.56197 -0.0765,-43.80135 8.77241,-35.33196 37.67612,-62.2791 73.63202,-68.64767 8.68452,-1.53822 24.52408,-1.28312 33.3585,0.53725 36.13931,7.44665 64.95824,36.73176 71.75111,72.91177 2.38908,12.72467 1.58896,29.88876 -1.94839,41.79659 -9.49294,31.95622 -33.90892,55.47163 -66.16049,63.72019 -10.16517,2.59981 -25.86471,3.27309 -35.93439,1.54105 z m 1.67126,-19.21282 c 2.01857,-1.82678 2.33991,-4.52137 0.8673,-7.27295 -0.54819,-1.02432 -4.07254,-2.79681 -8.19973,-4.12388 -13.43556,-4.32011 -28.62923,-16.79776 -35.23662,-28.93772 -1.50144,-2.75863 -3.7241,-7.79299 -4.93925,-11.18748 -2.61574,-7.30698 -5.67339,-9.23206 -10.5744,-7.01139 -1.61587,0.73216 -2.27156,2.8725 -1.81549,6.91872 0.28457,2.52469 2.61554,8.76917 5.26762,14.11152 4.01348,8.08475 6.17997,10.99578 13.85824,18.62077 9.64723,9.58027 16.71105,14.34357 26.86676,18.11687 7.46792,2.77466 11.44366,2.99354 13.90557,0.76554 z M 262.8,303.8 c 1.35522,-1.09451 1.72141,-2.67463 1.72141,-4.47695 0,-3.58955 -2.24212,-5.13655 -8.76884,-7.41484 -8.54228,-2.98188 -17.98759,-12.55585 -21.30648,-21.59673 -0.97146,-2.64631 -2.45525,-5.37398 -3.29732,-6.06148 -3.76282,-3.07213 -9.1493,-0.0368 -9.14798,5.15499 0.002,7.72443 10.8112,23.23161 20.49921,29.40865 8.40741,5.36053 17.38934,7.33709 20.3,4.98636 z M 279,279.96779 c 8.03524,-4.11527 13,-12.16187 13,-21.06965 0,-7.99612 -1.90973,-12.86092 -7.09161,-18.06504 -7.37194,-7.40358 -17.23889,-8.96433 -26.74001,-4.22972 -8.91045,4.44027 -13.92885,13.73942 -12.88303,23.87241 1.20577,11.6828 7.78102,19.84339 20.21465,21.86431 4.00836,0.65151 9.66536,-0.40838 13.5,-2.37231 z m -13.69764,-13.97958 c -2.89295,-1.16503 -5.59526,-6.46147 -4.73895,-9.28819 2.01597,-6.65482 9.34679,-8.88073 13.98204,-4.24547 3.44058,3.44057 3.2611,7.89274 -0.46853,11.62237 -3.01318,3.01319 -4.97647,3.44083 -8.77456,1.91129 z m 49.36723,-15.60669 c 1.62423,-2.47889 1.62028,-2.89203 -0.0742,-7.75 -4.96714,-14.24097 -17.65231,-26.28343 -32.30012,-30.6636 -3.64088,-1.08875 -4.54596,-1.03371 -6.75,0.41043 -1.73179,1.13471 -2.54532,2.56971 -2.54532,4.48972 0,3.26545 2.08756,5.3742 6.93111,7.00144 10.07172,3.38371 17.5398,10.53931 22.73507,21.7838 3.25792,7.05134 3.53294,7.34669 6.84105,7.34669 2.61455,0 3.86088,-0.63217 5.16236,-2.61848 z m 25.40365,-5.96977 c 1.97684,-2.38194 1.44899,-7.22774 -1.57313,-14.44192 -8.46834,-20.21498 -26.68581,-37.92159 -47.68044,-43.52399 -4.36659,-1.16522 -7.66085,-2.05284 -9.92439,0.47251 -2.96827,3.31159 -2.132,8.19386 5.28409,10.60095 19.53016,6.33906 33.70813,19.61514 41.82263,39.16221 1.78511,4.30017 3.53517,7.45388 4.50218,8.33592 1.74029,1.58738 6.20493,1.038 7.56906,-0.60568 z"
     id="path2" />
</svg>
