<?xml version="1.0" encoding="UTF-8" standalone="no"?>
<!-- Created with Inkscape (http://www.inkscape.org/) -->

<svg
   version="1.1"
   id="svg1"
   width="1024"
   height="1024"
   viewBox="0 0 1024 1024"
   xmlns:xlink="http://www.w3.org/1999/xlink"
   xmlns="http://www.w3.org/2000/svg"
   xmlns:svg="http://www.w3.org/2000/svg">
  <defs
     id="defs1" />
  <g
     id="g8"
     style="display:inline">
    <rect
       style="display:inline;fill:#ffffff;fill-opacity:1;stroke:none;stroke-width:100;stroke-dasharray:none;stroke-opacity:1;paint-order:markers stroke fill"
       id="rect10"
       width="597.94434"
       height="250.6386"
       x="237.04131"
       y="272.75598" />
    <path
       style="display:inline;fill:#2aa6bb;fill-opacity:1;stroke:#ffffff;stroke-width:100;stroke-dasharray:none;stroke-opacity:1;paint-order:markers stroke fill"
       d="m 440.5,938.92973 c -10.45,-1.0062 -23.95,-2.54759 -30,-3.4253 -10.45136,-1.51625 -12.56107,-1.81541 -22,-3.11954 -3.87105,-0.53485 -11.40534,-2.12599 -35.25,-7.44434 -9.44584,-2.10681 -49.13551,-14.72568 -52.86677,-16.80837 C 299.34745,907.55404 293.1,904.83301 286.5,902.08544 270.41723,895.39022 271.0117,895.66565 252.09784,886.14635 203.5134,861.69394 159.87752,829.6183 134.90386,800 125.81948,789.22609 122.83988,785.24185 113.90265,771.91778 98.073284,748.31857 85.90741,717.30695 80.00091,685.5 79.592374,683.3 78.54736,678.125 77.678657,674 76.809954,669.875 74.860248,658.175 73.345976,648 70.862025,631.30934 70.588218,626.76155 70.546377,601.5 70.52087,586.1 70.803112,570.125 71.173582,566 72.609644,550.01016 76.393995,528.64946 81.588717,507.21196 86.002975,488.99526 101.02239,449.64389 110.2952,432 c 11.57057,-22.01596 26.42052,-46.0418 37.98588,-61.45767 36.02783,-48.0227 75.73295,-88.75386 134.21892,-137.68736 13.5229,-11.31422 46.7352,-36.78603 60.26383,-46.21869 43.0585,-30.02198 82.71381,-52.07357 114.73617,-63.80269 9.55558,-3.5 23.82626,-7.84001 28,-8.51538 1.65,-0.26699 6.6,-1.30905 11,-2.31569 30.97667,-7.08691 79.38747,-6.50518 108.5,1.30379 15.63107,4.19278 38.38659,13.03405 49.5,19.23237 59.4643,33.16523 115.86081,86.42131 170.09456,160.62286 15.71378,21.4993 38.51489,56.26619 45.56286,69.4738 1.71054,3.20548 4.17489,7.51492 5.47633,9.57653 1.30144,2.06161 2.36625,3.9391 2.36625,4.17219 0,0.23309 1.62664,3.27954 3.61475,6.76987 3.95911,6.95063 14.67032,28.1879 21.35762,42.34607 2.33802,4.95 4.66782,9.80881 5.17734,10.79736 5.09271,9.88074 22.07013,55.76998 25.87833,69.94802 1.07172,3.99004 2.67488,9.72962 3.56257,12.75462 2.767,9.42912 6.09737,24.87391 8.4096,39 0.49515,3.025 1.65228,10 2.5714,15.5 1.79561,10.74492 2.49947,56.15369 1.02303,66 -0.41236,2.75 -1.16542,8.375 -1.67348,12.5 -3.10853,25.23896 -9.31151,56.95386 -13.39763,68.5 -13.64806,38.56531 -21.95811,55.34819 -38.20337,77.15507 -21.60951,29.00761 -52.7867,56.1076 -84.47632,73.42892 C 804.34867,875.1808 776.26633,889 775.43627,889 c -0.25194,0 -2.36566,0.87783 -4.69717,1.95074 -2.3315,1.0729 -7.8391,3.33648 -12.2391,5.03016 -4.4,1.69368 -8.9,3.50687 -10,4.02932 -3.21771,1.52824 -28.45188,9.74675 -35.01401,11.40369 -3.3077,0.8352 -8.90611,2.44246 -12.4409,3.57169 -3.5348,1.12923 -7.8035,2.29051 -9.486,2.58063 -1.6825,0.29012 -4.63409,0.94163 -6.55909,1.44781 -10.20151,2.68247 -33.37086,7.5524 -43.25,9.09065 -3.1625,0.49242 -8.5625,1.34473 -12,1.89403 -3.4375,0.54929 -9.625,1.4099 -13.75,1.91246 -4.125,0.50256 -8.625,1.15508 -10,1.45004 -1.375,0.29497 -5.2,0.80644 -8.5,1.1366 -3.3,0.33017 -9.825,1.02118 -14.5,1.53559 -4.675,0.5144 -13.225,1.1935 -19,1.50911 -5.775,0.31561 -15.45,1.04356 -21.5,1.61767 -6.05,0.5741 -27.2,1.16874 -47,1.32142 -28.92014,0.223 -39.73659,-0.0822 -55,-1.55188 z m 322,-522.03116 c 8.09648,-2.20684 12.92718,-9.64446 12.92402,-19.89857 -0.003,-9.25935 -3.5442,-15.8812 -10.6833,-19.97632 -4.5404,-2.60446 -5.90887,-2.9284 -10.24072,-2.42414 -6.64321,0.77332 -12.40365,4.71799 -15.20878,10.41477 -6.15411,12.49803 1.11447,28.89693 14.20878,32.05698 4.29867,1.0374 4.58015,1.03199 9,-0.17272 z M 317.40076,358.61103 c 12.59991,-7.38404 12.88993,-26.7584 0.52536,-35.09541 -3.69563,-2.49183 -5.42867,-2.98695 -10.5007,-3 -5.15842,-0.0133 -6.64174,0.4166 -9.83514,2.85021 -12.82096,9.77054 -12.05331,29.50584 1.41779,36.44954 5.73898,2.95817 11.98812,2.54898 18.39269,-1.20434 z M 696,244.91597 c 2.475,-1.12206 5.55629,-3.02468 6.84732,-4.22804 6.18646,-5.76639 8.61976,-16.75487 5.6741,-25.62345 -5.15235,-15.51225 -26.62267,-37.0626 -46.12796,-46.29989 -6.28846,-2.97808 -7.72722,-3.26347 -16.39346,-3.25181 -11.26175,0.0151 -15.39979,1.72633 -21.82425,9.02489 -11.55066,13.12225 -9.14274,32.18053 6.01031,47.57067 10.49284,10.65702 21.54662,17.81226 34.81394,22.53546 8.88959,3.16472 24.32087,3.3002 31,0.27217 z"
       id="path10" />
    <path
       style="display:inline;fill:#165560;fill-opacity:1"
       d="m 483.42267,715.94445 c -8.29254,-1.01851 -19.31754,-2.79883 -24.5,-3.95627 -5.18247,-1.15745 -10.22963,-2.28119 -11.21592,-2.49722 -2.52442,-0.55293 -8.65908,-2.57484 -12.20675,-4.02319 -1.65,-0.67362 -6.15,-2.43366 -10,-3.9112 -9.08005,-3.48472 -29.5,-13.5533 -29.5,-14.54574 0,-0.4225 -1.4625,-1.3604 -3.25,-2.08422 -1.7875,-0.72382 -4.375,-2.05802 -5.75,-2.96488 -8.78022,-5.79091 -10.91145,-7.33033 -14.48907,-10.46574 C 370.31694,669.5732 368.01045,668 367.3854,668 c -1.18345,0 -26.00327,-24.04222 -30.75135,-29.78792 -1.49438,-1.80835 -3.48587,-4.55299 -4.42555,-6.09919 -1.94403,-3.19883 -4.31051,-6.83912 -8.19939,-12.61289 -4.92417,-7.31085 -12.11654,-23.82418 -13.37197,-30.70137 -0.23079,-1.26425 -0.88749,-4.09863 -1.45934,-6.29863 -0.57184,-2.2 -1.80247,-9.3919 -2.73472,-15.98201 -2.16871,-15.33058 -1.31388,-29.48182 2.71404,-44.92941 0.56094,-2.15128 1.16769,-4.62628 1.34833,-5.5 1.45695,-7.04687 2.64213,-11.14223 3.95075,-13.65172 0.84231,-1.61527 1.53425,-3.6978 1.53764,-4.62784 0.003,-0.93004 0.42333,-1.94881 0.9332,-2.26393 0.50988,-0.31512 1.46858,-2.25418 2.13044,-4.30902 1.62482,-5.04444 13.94592,-25.68959 19.9663,-33.4554 2.67798,-3.45437 6.63781,-8.54861 8.79964,-11.32054 C 351.62261,441.58874 370.06664,424 371.37572,424 c 0.35421,0 3.90208,-2.6039 7.88415,-5.78645 3.98207,-3.18254 8.36513,-6.33558 9.74013,-7.00674 1.375,-0.67116 6.1,-3.44728 10.5,-6.16915 4.4,-2.72186 8.42042,-4.96883 8.93428,-4.99325 0.51385,-0.0244 2.76385,-0.90632 5,-1.95977 10.36704,-4.88392 15.36725,-6.56568 19.27643,-6.48337 3.55516,0.0749 5.07986,0.8523 9.7934,4.99369 3.07048,2.69777 6.84952,5.60432 8.39786,6.459 1.54835,0.85468 4.56632,2.92811 6.70661,4.60763 4.78025,3.75115 27.24066,14.7556 33.39142,16.36009 2.475,0.64563 4.95,1.53933 5.5,1.98601 1.22309,0.99332 12.88542,3.56387 25,5.51037 13.34164,2.14366 38.22866,1.66827 50,-0.95509 16.4403,-3.66387 28.94562,-7.00626 32,-8.55287 1.1,-0.557 4.025,-1.65453 6.5,-2.43897 2.475,-0.78445 6.4798,-2.15483 8.89956,-3.0453 7.33173,-2.69808 10.43254,-1.26862 24.75378,11.41141 2.83433,2.50952 6.31857,5.46276 7.74276,6.56276 2.66011,2.05459 20.6039,23.93211 20.6039,25.12079 0,0.36442 2.42711,4.53633 5.39358,9.2709 C 683.70442,478.96397 689,489.28447 689,491.51132 c 0,0.8626 0.88537,3.30383 1.96749,5.42496 1.08213,2.12114 2.22669,5.32784 2.54348,7.12601 0.3168,1.79817 0.84078,3.69784 1.16442,4.2215 1.12493,1.82017 6.32461,26.31134 6.32461,29.78972 0,1.05957 0.46789,1.92649 1.03975,1.92649 1.29761,0 1.19946,35.68452 -0.10485,38.12165 -0.49078,0.91701 -1.6033,5.87729 -2.47227,11.02283 -0.86898,5.14553 -1.7063,9.80552 -1.86071,10.35552 -0.15441,0.55 -0.63402,2.8 -1.06579,5 -0.98293,5.00831 -7.18044,18.9688 -11.82876,26.64543 -7.31632,12.08279 -13.54602,19.80684 -25.4901,31.60457 -7.3779,7.2875 -13.90833,13.25 -14.51206,13.25 -1.07271,0 -2.42676,0.82288 -13.71387,8.33414 -3.02976,2.01622 -5.85016,3.66586 -6.26755,3.66586 -0.41738,0 -4.35099,2.22789 -8.74134,4.95087 -4.39035,2.72299 -7.98245,4.72254 -7.98245,4.44347 0,-0.27908 -1.2375,0.1789 -2.75,1.01773 -3.67266,2.03685 -9.74809,4.46828 -15.25,6.10315 -2.475,0.73544 -7.65,2.30514 -11.5,3.48822 -3.85,1.18308 -9.7,2.79857 -13,3.58998 -3.3,0.79141 -7.125,1.87014 -8.5,2.39719 -3.51847,1.34866 -24.6831,3.05172 -43,3.4601 -10.89099,0.24282 -19.98333,-0.20508 -30.57733,-1.50626 z M 753.88507,498.62038 C 734.38112,491.65043 721.76122,461.67134 720.36836,419 c -0.63484,-19.44863 0.84529,-29.92911 5.5871,-39.5611 6.93517,-14.08731 21.56117,-20.14394 34.8451,-14.42935 5.66345,2.43635 12.97486,9.66974 16.23666,16.06341 7.54397,14.7874 14.4006,44.49714 15.56131,67.42704 0.65799,12.99866 -0.48202,20.87425 -4.60775,31.83196 -2.95969,7.8608 -6.79381,11.93087 -15.20157,16.1371 -7.66634,3.83532 -12.6157,4.39856 -18.90414,2.15132 z m 10.39705,-82.06609 c 12.57926,-5.65153 15.57905,-22.87005 6.14033,-35.24485 -7.71979,-10.12116 -22.97647,-9.47119 -30.35226,1.29307 -2.7228,3.97367 -3.77434,13.11703 -2.18435,18.99337 3.32096,12.27367 16.1678,19.5538 26.39628,14.95841 z M 257.18999,429.5401 c -9.42005,-2.98236 -15.45306,-9.75747 -18.73181,-21.03594 -2.35674,-8.10694 -0.35898,-19.46499 6.06892,-34.50416 1.29292,-3.025 3.77928,-8.875 5.52525,-13 6.41771,-15.16243 21.17137,-33.97145 32.59428,-41.55355 6.62947,-4.40038 17.32998,-8.39561 22.56586,-8.42536 10.08306,-0.0573 20.85263,7.64809 24.68439,17.66109 4.62577,12.08788 2.06496,33.92372 -5.95967,50.81782 -9.81092,20.65473 -30.7678,42.82808 -45.91996,48.58544 -6.54399,2.48653 -15.57558,3.11733 -20.82726,1.45466 z m 59.26842,-69.81504 c 8.87605,-5.02737 13.0399,-16.63622 9.42995,-26.29073 -5.93431,-15.8708 -26.08919,-18.18601 -34.42917,-3.95491 -6.69595,11.42578 -2.89718,26.10869 8.04081,31.07906 4.70443,2.13775 12.37854,1.76061 16.95841,-0.83342 z"
       id="path9" />
    <path
       style="display:inline;fill:#0b2b31;fill-opacity:1"
       d="m 488.5,714.85851 c -42.02637,-6.04331 -48.97059,-8.01825 -78.5,-22.32543 -12.70635,-6.1563 -17.04367,-8.54261 -21.09618,-11.6067 -1.8721,-1.41549 -4.23761,-2.88163 -5.25669,-3.25809 -2.18619,-0.8076 -8.49488,-5.50539 -20.45825,-15.23432 -14.04069,-11.41825 -28.00224,-27.37207 -36.9345,-42.20491 -2.29604,-3.81279 -8.85361,-17.1294 -10.20772,-20.72906 -5.97584,-15.88564 -7.08145,-22.19837 -7.73273,-44.15165 -0.58633,-19.76371 0.58465,-30.99278 4.23079,-40.57082 0.77938,-2.04736 1.6702,-5.15937 1.9796,-6.91558 1.04225,-5.916 10.99219,-27.8664 15.16549,-33.45634 1.27061,-1.70192 2.31019,-3.40387 2.31019,-3.78212 0,-1.64306 11.83672,-17.36586 18.7083,-24.85037 11.31855,-12.32815 22.58018,-22.1289 34.7925,-30.27918 9.46528,-6.31695 28.37305,-16.90616 30.78419,-17.24054 0.43174,-0.0599 2.86102,-1.11386 5.39841,-2.34218 2.53739,-1.22833 6.68415,-2.43187 9.21502,-2.67454 4.35805,-0.41785 4.95575,-0.15082 11.29371,5.04579 5.88289,4.82348 10.31578,7.90747 24.80787,17.25896 1.925,1.24217 4.625,2.58678 6,2.98804 1.375,0.40125 4.52713,1.74792 7.00474,2.9926 5.58149,2.80398 24.44039,8.87838 32.49526,10.46663 17.28286,3.40781 39.49444,3.56377 58,0.40726 14.22305,-2.42604 32.71355,-7.78409 43,-12.46024 12.11384,-5.50688 16.28691,-3.65627 37.11869,16.46078 6.206,5.99308 11.19401,11.16808 11.08445,11.5 -0.10956,0.33193 2.27492,3.7535 5.29883,7.6035 6.32993,8.05916 6.65736,8.61553 15.30146,26 5.9643,11.99503 7.85494,16.85187 12.16994,31.26322 5.2838,17.64695 6.92142,46.88131 4.01314,71.64146 -0.97519,8.30243 -2.09654,15.54532 -2.4919,16.09532 -0.63344,0.8812 -1.8361,4.73369 -2.551,8.1716 -1.11265,5.3507 -7.0578,16.98367 -14.22199,27.8284 -6.44709,9.75924 -11.27976,15.64637 -19.38579,23.61565 C 650.13961,669.64829 633.9826,682 631.20938,682 c -0.58659,0 -1.66117,0.56833 -2.38795,1.26297 -1.52576,1.45825 -5.99641,4.43214 -10.32143,6.86584 -5.33405,3.00148 -13.99229,7.25951 -14.27476,7.02017 -0.15111,-0.12804 -1.50111,0.44269 -3,1.2683 C 597.46277,700.4897 580.72349,706 578.19033,706 c -1.13976,0 -2.31086,0.386 -2.60243,0.85777 -0.29157,0.47178 -3.80563,1.60894 -7.80902,2.52703 -4.00338,0.91809 -8.85388,2.06759 -10.77888,2.55444 -12.31603,3.11486 -54.60641,4.91715 -68.5,2.91927 z m 55.95954,-23.47326 c 3.27775,-0.2415 8.5177,-1.10197 11.64434,-1.91217 3.12665,-0.81019 6.8308,-1.47308 8.23145,-1.47308 1.40065,0 2.82475,-0.45 3.16467,-1 0.33992,-0.55 1.482,-1 2.53796,-1 5.67822,0 26.99536,-8.91525 35.46204,-14.83093 6.69529,-4.67801 17.92249,-15.62169 21.67531,-21.12795 3.48229,-5.10934 9.14983,-17.04932 8.43302,-17.76612 -0.26435,-0.26436 -0.01,-1.67188 0.56626,-3.12782 2.25815,-5.70994 -0.0212,-21.32682 -4.54284,-31.12535 -1.16443,-2.52335 -5.59417,-7.97988 -10.14779,-12.5 -8.95993,-8.89402 -10.40066,-10.10632 -13.70747,-11.53412 -1.25207,-0.54061 -2.95149,-1.416 -3.77649,-1.9453 -3.77495,-2.42194 -18.11325,-7.91175 -23.51645,-9.00393 -3.29095,-0.66522 -7.10855,-1.4845 -8.48355,-1.82063 -3.02945,-0.74057 -2.67422,-0.69228 -12.25,-1.66531 C 555.4875,559.11941 552,558.36789 552,557.88251 552,557.39713 545.7,557 538,557 c -7.7,0 -14,0.39186 -14,0.87079 0,0.47893 -3.0375,1.17486 -6.75,1.54649 -11.78627,1.17986 -15.57795,1.69663 -22.75,3.10059 -10.14539,1.986 -18.31396,4.02286 -23.8709,5.9523 -2.67899,0.93018 -5.74088,1.85877 -6.8042,2.06355 -2.03009,0.39096 -11.21694,4.42442 -16.3249,7.1674 -13.10208,7.03583 -24.10034,17.03376 -30.16844,27.42448 -4.34207,7.43516 -7.39869,22.77051 -5.50332,27.61067 0.59524,1.52005 1.27467,4.14082 1.50986,5.82394 0.531,3.80022 3.96292,10.6685 7.96473,15.93979 4.23306,5.57589 11.92523,13.5 13.10486,13.5 0.54058,0 2.1325,1.08183 3.53759,2.40406 7.05378,6.63782 33.86312,17.13465 50.44766,19.7521 3.35888,0.53011 10.83206,1.21125 16.60706,1.51364 5.775,0.30238 10.725,0.77161 11,1.04271 0.44669,0.44037 11.40413,-0.0707 28.45954,-1.32726 z M 753,497.84291 c -14.95715,-5.87183 -25.94445,-26.26074 -30.5692,-56.72662 -1.88077,-12.38973 -2.18373,-40.88587 -0.5214,-49.04313 3.52901,-17.31733 15.30357,-29.07199 29.0906,-29.04143 15.80249,0.035 26.96168,13.97873 34.38852,42.96936 8.69242,33.93079 9.09615,59.39319 1.21297,76.49891 -2.92703,6.35137 -6.60465,9.96801 -13.86067,13.63083 -7.85718,3.9663 -12.88744,4.40256 -19.74082,1.71208 z m 9.36164,-79.78664 c 9.48808,-2.2015 16.14036,-14.9065 13.52323,-25.82762 -0.62324,-2.60076 -2.20404,-6.61174 -3.51288,-8.9133 -7.85028,-13.80451 -27.47416,-12.86586 -34.44019,1.64735 -1.78482,3.71853 -2.02919,5.46943 -1.46545,10.5 1.35116,12.05718 7.53842,20.36384 16.8087,22.56636 4.40204,1.04588 4.69258,1.04675 9.08659,0.0272 z m -508.9325,9.56296 c -12.94754,-6.02898 -18.34992,-21.71895 -13.47648,-39.13933 2.85107,-10.19128 11.45488,-30.86631 16.09554,-38.67769 12.50765,-21.05351 28.76031,-34.73156 44.90774,-37.79385 10.92462,-2.07181 22.08021,3.79243 27.53367,14.47382 2.91281,5.70515 3.00735,6.31965 2.91672,18.95705 -0.0847,11.80665 -0.39461,13.97298 -3.22763,22.56077 -8.54103,25.8905 -33.75852,54.93716 -52.53613,60.51351 -7.59232,2.25467 -16.19463,1.90836 -22.21343,-0.89428 z m 63.21144,-67.31245 c 8.05863,-4.18205 13.26469,-17.00373 10.4128,-25.64503 -3.21583,-9.74407 -12.84239,-16.51078 -21.75156,-15.28964 -10.24222,1.40385 -17.2579,10.39928 -17.2579,22.12789 0,16.58056 14.50486,26.11978 28.59666,18.80678 z"
       id="path8" />
  </g>
</svg>
