<?xml version="1.0" encoding="UTF-8" standalone="no"?>
<svg
   version="1.1"
   viewBox="0 0 500 500"
   width="500"
   height="500"
   id="svg43"
   sodipodi:docname="icon_desmos.svg"
   inkscape:version="1.4 (e7c3feb100, 2024-10-09)"
   xmlns:inkscape="http://www.inkscape.org/namespaces/inkscape"
   xmlns:sodipodi="http://sodipodi.sourceforge.net/DTD/sodipodi-0.dtd"
   xmlns="http://www.w3.org/2000/svg"
   xmlns:svg="http://www.w3.org/2000/svg">
  <path
     id="Sphere_Outline"
     fill="#000000"
     stroke="none"
     class="s0"
     paint-order="stroke fill markers"
     d="m 649.11571,361.68385 -0.21416,-9.73688 -0.76866,-11.10371 -1.32558,-11.05107 -1.87917,-10.9705 -2.42799,-10.86223 -2.9707,-10.72652 -3.50589,-10.56371 -4.03223,-10.37422 -4.54838,-10.15852 -5.05304,-9.91715 -6.27196,-10.83713 -6.87444,-10.46533 -7.45493,-10.06007 -8.0116,-9.62264 -8.54264,-9.15446 -9.04639,-8.65701 -9.52121,-8.13188 -9.9656,-7.58076 -10.37811,-7.0054 -10.75747,-6.40765 -11.10241,-5.78941 -11.41189,-5.15266 -11.68486,-4.49944 -11.92048,-3.83184 -12.118,-3.15199 -12.27678,-2.46205 -12.3963,-1.76426 -12.4762,-1.06081 -12.51622,-0.35398 -12.51621,0.35398 -12.47621,1.06081 -12.3963,1.76426 -12.27678,2.46205 -12.118,3.15199 -11.92048,3.83184 -11.68486,4.49944 -11.41188,5.15266 -11.10242,5.78941 -10.75746,6.40765 -10.37812,7.0054 -9.96559,7.58076 -9.52121,8.13188 -9.04639,8.65701 -8.54265,9.15446 -8.0116,9.62264 -7.45493,10.06007 -6.87443,10.46533 -6.27197,10.83713 -5.64943,11.17429 -4.48447,10.18689 -3.96696,10.39935 -3.43945,10.58553 -2.90324,10.74497 -2.3597,10.87728 -1.8102,10.98209 -1.25612,11.05918 -0.69888,11.10832 -0.15297,9.73804 0.27533,9.73534 0.83841,11.09867 1.39499,11.04251 1.94806,10.95849 2.4962,10.84676 3.03803,10.70764 3.57219,10.54147 4.09733,10.34868 4.61212,10.12974 5.11526,9.88521 6.33993,10.79751 6.94005,10.42193 7.51799,10.01302 8.0719,9.57212 8.6,9.1006 9.1006,8.6 9.57212,8.0719 10.01303,7.51799 10.42193,6.94006 10.79751,6.33993 11.13857,5.71953 11.44403,5.08086 11.7129,4.42594 11.94433,3.75686 12.13756,3.07579 12.29201,2.38487 12.40714,1.68633 12.48262,0.98241 12.51819,0.27533 12.51375,-0.43262 12.46929,-1.13918 12.38497,-1.84211 12.26107,-2.53914 12.09795,-3.22807 11.89618,-3.90666 11.65636,-4.57277 11.37928,-5.22426 11.06582,-5.85905 10.71699,-6.47511 10.3339,-7.07047 9.91776,-7.64323 9.46993,-8.19154 8.99182,-8.71368 8.48496,-9.20795 7.95098,-9.67279 7.39157,-10.10671 6.80855,-10.50832 6.20374,-10.87632 5.57912,-11.20957 4.42037,-10.21487 3.90155,-10.42407 3.37286,-10.60693 2.83568,-10.763 2.29131,-10.89188 1.74116,-10.99326 1.18661,-11.06685 0.62906,-11.11249 0.10928,-6.95602 v 0"
     fill-opacity="0.3"
     inkscape:label="Sphere Outline"
     transform="matrix(1.1289174,0,0,1.1289174,-232.79802,-158.30873)" />
  <path
     id="XZ_Slice"
     fill="#348543"
     stroke="none"
     class="s1"
     paint-order="stroke fill markers"
     d="m 241.51173,446.35749 7.36727,-4.74899 8.07847,-4.39579 8.75779,-4.02525 9.40253,-3.63882 11.04311,-3.53927 11.72558,-3.03745 12.35206,-2.52112 12.91955,-1.99276 13.42536,-1.45487 15.14732,-0.96558 15.58688,-0.31175 15.93786,0.34384 16.19827,0.9975 16.36665,1.64548 16.44203,2.2841 16.42398,2.90976 16.31261,3.51887 16.10854,4.108 15.81295,4.67378 15.4275,5.213 14.95439,5.7226 14.3963,6.19968 13.75642,6.64155 13.03836,7.04566 12.24622,7.40974 10.47031,7.07617 9.69618,7.31296 8.87573,7.51483 8.01291,7.6808 7.11184,7.81012 6.17679,7.90212 5.21225,7.95641 3.88039,7.24823 2.78044,6.51127 2.09672,6.4782 1.28429,5.71387 0.7355,5.65694 0.18484,5.5857 -0.36628,5.50037 -0.91648,5.40113 -1.46436,5.28826 -2.00853,5.16202 -2.54765,5.02275 -3.50244,5.46833 -4.66855,5.82912 -5.4685,5.54713 -6.24687,5.24323 -7.0006,4.91864 -7.72668,4.57465 -8.42229,4.2126 -9.08464,3.83392 -10.71526,3.76194 -11.42212,3.26749 -12.07443,2.75746 -12.66909,2.23425 -13.20326,1.70038 -14.93862,1.23661 -15.41436,0.58461 -15.80251,-0.0707 -16.10088,-0.72562 -16.30776,-1.37641 -16.42196,-2.01938 -16.44286,-2.65088 -16.37033,-3.26731 -16.20477,-3.86517 -15.94714,-4.44109 -15.59889,-4.99175 -15.16201,-5.51405 -14.63897,-6.00503 -14.03276,-6.46189 -13.3468,-6.88201 -12.585,-7.26305 -11.7517,-7.6028 -9.98324,-7.23084 -9.17919,-7.44553 -8.33131,-7.62465 -7.44366,-7.76738 -6.52045,-7.87301 -5.56613,-7.94105 -4.20951,-7.24628 -3.08159,-6.5193 -2.40155,-6.49546 -1.55756,-5.73694 -1.01021,-5.6872 -0.46032,-5.6231 0.0908,-5.54479 0.64158,-5.45247 1.1908,-5.34639 1.73699,-5.22679 2.27881,-5.09399 3.20408,-5.556 3.87225,-5.35389 5.07103,-5.69093 5.86058,-5.39784 6.62701,-5.08345 v 0"
     fill-opacity="0.2"
     inkscape:label="XZ Slice"
     transform="matrix(1.1289174,0,0,1.1289174,-234.40526,-349.57007)" />
   <g
      id="Trapezoids"
      class="c1"
      transform="matrix(1.1289174,0,0,1.1289174,-234.40526,-349.57007)"
      style="opacity: 0.5"
   >
      <path
         fill="none"
         class="c0"
         paint-order="fill stroke markers"
         d="m 241.51173,446.35749 v 0 L 619.37994,505.6713 426.36669,641.28319"
         stroke-linecap="round"
         stroke-linejoin="round"
         stroke-miterlimit="10"
         stroke-width="0.5em"
         stroke-dasharray="none"
         id="Trapezoid_Right"
         inkscape:label="Trapezoid Right"
         style="display:inline" />
      <path
         fill="none"
         class="c0"
         paint-order="fill stroke markers"
         d="m 241.51173,446.35749 v 0 l 184.85496,194.9257"
         stroke-linecap="round"
         stroke-linejoin="round"
         stroke-miterlimit="10"
         stroke-width="0.5em"
         stroke-dasharray="none"
         id="Trapezoid_Left"
         inkscape:label="Trapezoid Left"
         style="display:inline" />
      <path
         fill="none"
         class="c0"
         paint-order="fill stroke markers"
         d="m 241.51173,446.35749 v 0 l 23.37388,-58.16067 356.25758,55.9216 -1.76325,61.55288 v 0 l 1.76325,-61.55288 -181.97464,127.85611 -12.80186,69.30866 v 0 l 12.80186,-69.30866 -174.28294,-183.77771 -23.37388,58.16067 23.37388,-58.16067 49.68347,-46.27394 281.64634,44.2099 24.92777,57.98564 v 0 l -24.92777,-57.98564 -143.86358,101.07914 -13.18329,84.76261 v 0 l 13.18329,-84.76261 -137.78276,-145.28904 -49.68347,46.27394 49.68347,-46.27394 152.45603,0.15891 v 0 l 129.19031,44.05099 v 0 L 467.02511,342.08179 v 0 l -14.67327,145.13013 v 0 l 14.67327,-145.13013 v 0 l -152.45603,-0.15891"
         stroke-linecap="round"
         stroke-linejoin="round"
         stroke-miterlimit="10"
         stroke-width="0.5em"
         stroke-dasharray="none"
         id="Trapezoid_Up"
         inkscape:label="Trapezoid Up" />
  </g>
</svg>
